<svg version="1" xmlns="http://www.w3.org/2000/svg" width="682.667" height="682.667" viewBox="0 0 512.000000 512.000000"><path d="M74 254.5V304h19v-99H74v49.5zM231 234.3c-9.4 2.7-17.2 9.6-21.9 19.6-2.3 4.9-2.6 6.8-2.6 15.6.1 8.6.4 10.8 2.7 15.7 3.5 7.5 9.8 14.1 16.7 17.5 4.9 2.5 6.7 2.8 15.1 2.8 8.4 0 10.1-.3 15.2-2.9 6.7-3.3 12.2-8.9 15-15.4 2.1-4.6 1.6-6-2.2-6.3-1.5-.1-2.2-.2-10-1.3-4.4-.7-4.6-.6-6.4 2.8-2.5 4.6-7.5 7-13.6 6.4-9.5-.9-14.5-8.2-13.8-20.3.5-8.4 2.6-13.2 7.3-16.3 6.6-4.2 16.7-2 20.1 4.4 1 1.9 2.5 3.4 3.4 3.3 2.8-.1 16-2.6 16.6-3.2 1.1-1-3.5-9.6-7.2-13.7-5.6-6-12.7-9.1-22.1-9.6-4.6-.2-9.7.1-12.3.9zM314.5 234c-5.4 1.3-9.9 3.7-13.4 7-3.4 3.4-7.8 11.7-6.6 12.8.4.4 4.3 1.4 8.8 2.2l8.2 1.6 1.6-3.1c2.1-3.9 5.9-5.7 11.9-5.7 7.5.1 12 3.2 12 8.3 0 2.5-.4 2.9-3 3-1.6.1-3.3.2-3.7.3-1.9.4-8.1 1.6-11.3 2.1-11.4 1.8-19.8 6.1-24 12.3-2.1 3-2.5 4.7-2.5 10.7 0 6.3.4 7.7 2.9 11.3 4.1 5.9 10.1 8.6 19.9 8.9 9.2.2 15.1-1.4 20.8-5.6l4.2-3 1.9 2.5c2.7 3.3 6.5 5.2 11.3 5.4 7.9.4 7.5.7 7.5-7.3 0-6.7-.2-7.3-2.2-7.4-1.1-.1-2.4-.7-2.8-1.3-.4-.7-.8-9.2-.8-19-.1-20.1-.9-23.6-7.3-29.8-6-5.9-22.5-9-33.4-6.2zm22.6 40.2c.9 10.2-6 17.1-16.9 16.9-4.9 0-6-.4-7.9-2.6-5.2-6-.6-11.4 11-13 2.3-.4 5.8-1 7.7-1.5 5.1-1.2 6-1.1 6.1.2zM397.2 234.8c-10 3.6-16.1 11.6-16.2 21.3 0 11.9 6 17.3 23.7 21.1 11 2.3 14.3 4 14.3 7.4 0 7.6-17.9 8.2-21.2.7-.7-1.5-1.6-3.1-2-3.4-.7-.5-16.9 1.9-17.6 2.6-1 1 2.6 9.1 5.6 12.6 5.1 6 10.7 8.1 22.1 8.4 11.5.4 17.1-1.2 23.6-6.4 8.6-6.9 10-20.6 2.9-29-3-3.6-10.4-6.5-21.4-8.5-9.6-1.8-12.7-3.9-11.6-8 .8-3.1 3.8-4.9 8.6-5.2 4.7-.2 8.5 1.9 10.2 5.6.7 1.6 1.5 3 1.9 3 .3 0 3.2-.5 6.5-1.1 3.2-.6 6.5-1.2 7.2-1.3 3.9-.6 2.5-6.6-3.1-13.2-6.2-7.4-22.4-10.5-33.5-6.6zM120 258.8c0 16.7.4 25.3 1.3 29 3.1 11.6 10.7 17.6 22.9 17.9 8.4.2 12.8-1.1 17.7-5.3l3.8-3.3-.2 3.4c-.1 1.9.3 3.6.9 3.8.6.1 4.5.3 8.6.2h7.5l.3-34.8.2-34.7H164.3l-.1 22.6c0 22.4 0 22.5-2.5 26.3-1.4 2.1-3.8 4.3-5.4 4.8-3.9 1.3-10.8 1-12.8-.7-4.2-3.5-4.6-6.1-4.6-30v-23H120v23.8z"/></svg>